<?xml version="1.0" encoding="utf-8"?>
<!-- Generator: Adobe Illustrator 25.2.3, SVG Export Plug-In . SVG Version: 6.00 Build 0)  -->
<svg version="1.1" id="Layer_1" xmlns="http://www.w3.org/2000/svg" xmlns:xlink="http://www.w3.org/1999/xlink" x="0px" y="0px"
	 viewBox="0 0 256 256" style="enable-background:new 0 0 256 256;" xml:space="preserve">
<style type="text/css">
	.st0{fill:none;}
	.st1{fill:#010101;}
	<!-- .st2{fill:none;stroke:#FFFFFF;stroke-width:4;stroke-miterlimit:10;} -->
	.st3{fill:none;stroke:#56A0D3;stroke-width:12;stroke-miterlimit:10;}
	.st4{fill:#56A0D3;stroke:none;stroke-miterlimit:10;}
</style>
<g>
	<g>
		<g>
			<g>
				<path class="st0" d="M128,138.3L128,138.3L128,138.3L128,138.3z"/>
				<path class="st0" d="M127.9,138.8L127.9,138.8v-0.4l0,0l0,0l0,0V138.8z"/>
				<rect x="127.9" y="138.4" class="st1" width="0" height="0.4"/>
				<path class="st1" d="M126,138.2L126,138.2L126,138.2L126,138.2z"/>
				<path class="st1" d="M127.9,138.8L127.9,138.8L127.9,138.8z"/>
			</g>
		</g>
	</g>
</g>
<path class="st2" d="M127,138.5"/>
<path class="st2" d="M127,138.5"/>
<g>
	<path class="st3" d="M97.6,244.5c-7.9,0-14.4-6.8-14.4-15.2V60.7c0-8.3,6.4-15.2,14.4-15.2h61.1c7.9,0,14.4,6.8,14.4,15.2v168.6
		c0,8.3-6.4,15.2-14.4,15.2H97.6L97.6,244.5z"/>
</g>
<g>
	<g>
		<path class="st4" d="M168.3,46.5c0,0,0-0.2-18.5-4c0.9-4.4,3.6-8,6.6-11.1c12-12.7,27.8-20.4,44.1-23.1c9-1.5,18.6-1.5,26.7,3.3
			c8.4,5,15.4,12.6,19.8,22c5.4,11.4,7.1,24,7.2,34.6c0,0.3,0,0.5,0,0.8c-1.2,13-7.4,27.4-15.3,37.6c-5,6.3-12.1,10-19.4,12.1
			c-10.4,3-23.2,2.3-29.8-7.3c-2.8-4.1-4-9.4-4.6-14.6c-0.8-7.2-0.6-14.8,2.9-21c3.4-6.1,11-9.8,16.8-6.6c1.9,1,3.5,2.8,4.8,4.7
			c2.5,3.5,4.2,8,3.4,12.3c-0.8,4.4-4.8,8.1-8.6,6.9c1.9-3.2-1.3-7.7-4.7-7.4c-3.4,0.3-5.7,4.2-5.7,8c0,3.7,1.8,7.2,4,10.1
			c2.8,3.6,6.7,6.7,11,7c6.1,0.4,11.5-4.7,14.5-10.6c4.7-9.1,5.4-20.7,1.8-30.4c-3.6-9.6-11.6-17.2-20.8-19.8
			c-2.9-0.8-5.9-1.1-8.8-0.6c-9.1,1.8-15,11.4-19.9,20.2L168.3,46.5z"/>
	</g>
	<g>
		<path class="st4" d="M87.7,46.5c0,0,0-0.2,18.5-4c-0.9-4.4-3.6-8-6.6-11.1C87.6,18.7,71.8,11,55.5,8.3c-9-1.5-18.6-1.5-26.7,3.3
			c-8.4,5-15.4,12.6-19.8,22C3.6,45,1.9,57.7,1.8,68.2c0,0.3,0,0.5,0,0.8C3,82,9.2,96.4,17.1,106.6c5,6.3,12.1,10,19.4,12.1
			c10.4,3,23.2,2.3,29.8-7.3c2.8-4.1,4-9.4,4.6-14.6c0.8-7.2,0.6-14.8-2.9-21c-3.4-6.1-11-9.8-16.8-6.6c-1.9,1-3.5,2.8-4.8,4.7
			c-2.5,3.5-4.2,8-3.4,12.3c0.8,4.4,4.8,8.1,8.6,6.9c-1.9-3.2,1.3-7.7,4.7-7.4c3.4,0.3,5.7,4.2,5.7,8c0,3.7-1.8,7.2-4,10.1
			c-2.8,3.6-6.7,6.7-11,7c-6.1,0.4-11.5-4.7-14.5-10.6c-4.7-9.1-5.4-20.7-1.8-30.4c3.6-9.6,11.6-17.2,20.8-19.8
			c2.9-0.8,5.9-1.1,8.8-0.6c9.1,1.8,15,11.4,19.9,20.2L87.7,46.5z"/>
	</g>
</g>
</svg>
